<svg xmlns="http://www.w3.org/2000/svg" width="28.091" height="22.06" viewBox="0 0 28.091 22.06">
  <g id="Icon-Tab" transform="translate(0)">
    <path id="Path_260" data-name="Path 260" d="M12.043-.13V-11.715a1.377,1.377,0,0,0-.417-1.012,1.377,1.377,0,0,0-1.012-.417H-5.414a1.377,1.377,0,0,1-1.012-.417,1.377,1.377,0,0,1-.417-1.012v-.952a1.377,1.377,0,0,0-.417-1.012,1.377,1.377,0,0,0-1.012-.417H-10.81a1.377,1.377,0,0,0-1.012.417,1.377,1.377,0,0,0-.417,1.012V-.13A1.377,1.377,0,0,0-11.822.882,1.377,1.377,0,0,0-10.81,1.3H10.615A1.377,1.377,0,0,0,11.627.882,1.377,1.377,0,0,0,12.043-.13Zm1.9-11.585V-.13a3.207,3.207,0,0,1-.982,2.351,3.207,3.207,0,0,1-2.351.982H-10.81a3.207,3.207,0,0,1-2.351-.982A3.207,3.207,0,0,1-14.143-.13V-15.524a3.207,3.207,0,0,1,.982-2.351,3.207,3.207,0,0,1,2.351-.982h2.539a3.207,3.207,0,0,1,2.351.982,3.207,3.207,0,0,1,.982,2.351v.476H10.615a3.207,3.207,0,0,1,2.351.982A3.207,3.207,0,0,1,13.948-11.715Z" transform="translate(14.143 18.857)" fill="currentColor"/>
    <path id="Path_257" data-name="Path 257" d="M2.222,0H4.444A2.222,2.222,0,0,1,6.666,2.222V4.444H0V2.222A2.222,2.222,0,0,1,2.222,0Z" transform="translate(10.157 0.952)" fill="currentColor"/>
    <path id="Path_256" data-name="Path 256" d="M2.222,0H4.444A2.222,2.222,0,0,1,6.666,2.222V4.444H0V2.222A2.222,2.222,0,0,1,2.222,0Z" transform="translate(17.934 0.952)" fill="currentColor"/>
  </g>
</svg>
