<svg xmlns="http://www.w3.org/2000/svg" width="45.813" height="25.03" viewBox="0 0 45.813 25.03">
  <g id="Icon-Akkordeon" transform="translate(0 0)">
    <path id="Path_248" data-name="Path 248" d="M1060.146,346.221h-24.613a.97.97,0,0,1,0-1.921h24.613a.9.9,0,0,1,.833.961A.917.917,0,0,1,1060.146,346.221Z" transform="translate(-1024.933 -321.191)" fill="currentColor"/>
    <path id="Path_250" data-name="Path 250" d="M1060.146,346.221h-24.613a.97.97,0,0,1,0-1.921h24.613a.9.9,0,0,1,.833.961A.917.917,0,0,1,1060.146,346.221Z" transform="translate(-1024.933 -344.3)" fill="currentColor"/>
    <g id="Path_256" data-name="Path 256" transform="translate(0 4.173)" fill="none">
      <path d="M3.927,0H41.886a4.061,4.061,0,0,1,3.927,4.184v8.367a4.061,4.061,0,0,1-3.927,4.184H3.927A4.061,4.061,0,0,1,0,12.551V4.184A4.061,4.061,0,0,1,3.927,0Z" stroke="none"/>
      <path d="M 3.926826477050781 2.000000953674316 C 2.864368438720703 2.000000953674316 1.999996185302734 2.97960090637207 1.999996185302734 4.183691024780273 L 1.999996185302734 12.55108070373535 C 1.999996185302734 13.75518035888672 2.864368438720703 14.73478031158447 3.926826477050781 14.73478031158447 L 41.88612747192383 14.73478031158447 C 42.94858551025391 14.73478031158447 43.81295776367188 13.75518035888672 43.81295776367188 12.55108070373535 L 43.81295776367188 4.183691024780273 C 43.81295776367188 2.97960090637207 42.94858551025391 2.000000953674316 41.88612747192383 2.000000953674316 L 3.926826477050781 2.000000953674316 M 3.926826477050781 0 L 41.88612747192383 0 C 44.05484771728516 0 45.81295776367188 1.873100280761719 45.81295776367188 4.183691024780273 L 45.81295776367188 12.55108070373535 C 45.81295776367188 14.86168098449707 44.05484771728516 16.73478126525879 41.88612747192383 16.73478126525879 L 3.926826477050781 16.73478126525879 C 1.758098602294922 16.73478126525879 -3.814697265625e-06 14.86168098449707 -3.814697265625e-06 12.55108070373535 L -3.814697265625e-06 4.183691024780273 C -3.814697265625e-06 1.873100280761719 1.758098602294922 0 3.926826477050781 0 Z" stroke="none" fill="currentColor"/>
    </g>
  </g>
</svg>
