<svg xmlns="http://www.w3.org/2000/svg" width="25.942" height="17.297" viewBox="0 0 25.942 17.297">
  <path id="icon-copysprache" d="M1045.656,470.672a.655.655,0,0,1-.656-.656v-7.438a.653.653,0,0,1,.656-.656h7.558a.655.655,0,0,1-.075-.313v-7.566a.664.664,0,0,1,.668-.668h16.467a.664.664,0,0,1,.668.668v7.566a.665.665,0,0,1-.668.668h-7.844a.645.645,0,0,1,.07.3v7.438a.654.654,0,0,1-.657.656Zm8.094-1.094h7.656v-6.563h-7.656Zm-3.554-1.75.246.848a.323.323,0,0,0,.328.247h.6a.337.337,0,0,0,.274-.137.3.3,0,0,0,.055-.3l-1.586-4.594a.276.276,0,0,0-.3-.219h-.875a.275.275,0,0,0-.3.219l-1.586,4.594a.3.3,0,0,0,.055.3.337.337,0,0,0,.273.137h.6a.351.351,0,0,0,.205-.068.3.3,0,0,0,.122-.178l.247-.848Zm11.844-6.665h7.789v-6.676h-7.789Zm-3.381-.723a.337.337,0,0,0,.278.041.3.3,0,0,0,.194-.153l.223-.39a.243.243,0,0,0,.041-.236.426.426,0,0,0-.153-.209,9.333,9.333,0,0,1-.751-.584l.111-.139a5.658,5.658,0,0,0,1.03-1.724h.389a.332.332,0,0,0,.334-.334v-.445a.332.332,0,0,0-.334-.333h-1.78v-.445a.332.332,0,0,0-.334-.334h-.445a.332.332,0,0,0-.334.334v.445h-1.78a.332.332,0,0,0-.334.333v.445a.332.332,0,0,0,.334.334h3.088a6.883,6.883,0,0,1-.724,1.085,7.7,7.7,0,0,1-.5-.668.354.354,0,0,0-.209-.139.346.346,0,0,0-.237.028l-.389.222a.33.33,0,0,0-.167.222.3.3,0,0,0,.056.251,5.667,5.667,0,0,0,.668.862,6.023,6.023,0,0,1-.807.584.349.349,0,0,0-.139.209.339.339,0,0,0,.028.236l.222.39a.3.3,0,0,0,.194.153.337.337,0,0,0,.278-.041,11.893,11.893,0,0,0,1-.751A6.716,6.716,0,0,0,1058.658,460.441Zm-.232,8.427a6.494,6.494,0,0,1-.93-.739,11.507,11.507,0,0,1-.985.739.326.326,0,0,1-.274.04.293.293,0,0,1-.191-.15l-.22-.383a.348.348,0,0,1,.11-.437,5.811,5.811,0,0,0,.793-.574,5.534,5.534,0,0,1-.656-.848.3.3,0,0,1-.055-.246.325.325,0,0,1,.164-.22l.383-.219a.348.348,0,0,1,.437.11,7.583,7.583,0,0,0,.492.656,6.786,6.786,0,0,0,.711-1.066h-3.036a.326.326,0,0,1-.328-.328v-.437a.326.326,0,0,1,.328-.328h1.75V464a.327.327,0,0,1,.328-.328h.437a.327.327,0,0,1,.328.328v.437h1.75a.326.326,0,0,1,.328.328v.437a.326.326,0,0,1-.328.328h-.383a5.557,5.557,0,0,1-1.012,1.7l-.11.137a9.166,9.166,0,0,0,.739.574.423.423,0,0,1,.15.205.241.241,0,0,1-.041.232l-.219.383a.293.293,0,0,1-.191.15.317.317,0,0,1-.093.014A.347.347,0,0,1,1058.426,468.868Zm-9.571-2.078.3-1.012.219-.9q.138.574.219.9l.3,1.012Zm18.291-6.294a.327.327,0,0,1-.334-.25l-.25-.862h-1.669l-.25.862a.308.308,0,0,1-.125.181.352.352,0,0,1-.209.069h-.612a.341.341,0,0,1-.278-.139.306.306,0,0,1-.056-.306l1.614-4.674a.28.28,0,0,1,.306-.222h.89a.281.281,0,0,1,.306.222l1.613,4.674a.306.306,0,0,1-.056.306.341.341,0,0,1-.278.139Zm-2.067-2.169h1.4l-.752-1.948C1065.55,456.79,1065.079,458.327,1065.079,458.327Z" transform="translate(-1045 -453.375)" fill="#435a6b"/>
</svg>
