<svg id="icon-OPC" xmlns="http://www.w3.org/2000/svg" width="18.729" height="29" viewBox="0 0 18.729 29">
  <path id="Path_821" data-name="Path 821" d="M15.1,37.708H1.812a.571.571,0,0,1-.6-.6V28.042H.6a.571.571,0,0,1-.6-.6V22.6A.571.571,0,0,1,.6,22H16.312a.571.571,0,0,1,.6.6v4.833a.571.571,0,0,1-.6.6h-.6V37.1A.571.571,0,0,1,15.1,37.708ZM2.417,36.5H14.5V27.438a.571.571,0,0,1,.6-.6h.6V23.208H1.208v3.625h.6a.571.571,0,0,1,.6.6Z" transform="translate(0 -8.708)" fill="#fff"/>
  <path id="Path_822" data-name="Path 822" d="M13.833,16.667H12.625V9.417a1.208,1.208,0,1,0-2.417,0v7.25H9V9.417a2.417,2.417,0,1,1,4.833,0Z" transform="translate(-3.563 -2.771)" fill="#fff"/>
  <rect id="Rectangle_38" data-name="Rectangle 38" width="3.625" height="1.208" transform="translate(6.042 7.854)" fill="#fff"/>
  <rect id="Rectangle_39" data-name="Rectangle 39" width="3.625" height="1.208" transform="translate(6.042 10.271)" fill="#fff"/>
  <rect id="Rectangle_40" data-name="Rectangle 40" width="1.208" height="6.525" transform="translate(15.104 7.25)" fill="#fff"/>
  <path id="Path_823" data-name="Path 823" d="M26.25,20.063H25.042v-7.25a.571.571,0,0,0-.6-.6H20.208v5.921H19V11.6a.571.571,0,0,1,.6-.6h4.833a1.78,1.78,0,0,1,1.813,1.813Z" transform="translate(-7.521 -4.354)" fill="#fff"/>
  <path id="Path_824" data-name="Path 824" d="M23.625,9.229H22.417V6.813a.6.6,0,0,0-1.208,0V9.229H20V6.813a1.812,1.812,0,1,1,3.625,0Z" transform="translate(-7.917 -1.979)" fill="#fff"/>
  <path id="Path_825" data-name="Path 825" d="M4.208,13.775H3V.6A.571.571,0,0,1,3.6,0H8.438a.571.571,0,0,1,.6.6V4.833H7.833V1.208H4.208Z" transform="translate(-1.187)" fill="#fff"/>
  <rect id="Rectangle_41" data-name="Rectangle 41" width="1.813" height="1.208" transform="translate(2.417 3.021)" fill="#fff"/>
  <rect id="Rectangle_42" data-name="Rectangle 42" width="1.813" height="1.208" transform="translate(2.417 6.646)" fill="#fff"/>
  <rect id="Rectangle_43" data-name="Rectangle 43" width="1.813" height="1.208" transform="translate(2.417 10.271)" fill="#fff"/>
  <rect id="Rectangle_44" data-name="Rectangle 44" width="4.833" height="1.208" transform="translate(1.813 18.125)" fill="#fff"/>
  <rect id="Rectangle_45" data-name="Rectangle 45" width="3.625" height="1.208" transform="translate(12.687 18.125)" fill="#fff"/>
</svg>
