<svg xmlns="http://www.w3.org/2000/svg" width="45.492" height="24.015" viewBox="0 0 45.492 24.015">
  <g id="Icon-Button" transform="translate(-4.638 0)">
    <g id="Path_255" data-name="Path 255" transform="translate(4.638)" fill="none">
      <path d="M3.9,0H41.593a3.9,3.9,0,0,1,3.9,3.9v7.8a3.9,3.9,0,0,1-3.9,3.9H3.9A3.9,3.9,0,0,1,0,11.7V3.9A3.9,3.9,0,0,1,3.9,0Z" stroke="none"/>
      <path d="M 3.899322509765625 2 C 2.852031707763672 2 2.000003814697266 2.852029800415039 2.000003814697266 3.899310111999512 L 2.000003814697266 11.6979398727417 C 2.000003814697266 12.74522972106934 2.852031707763672 13.59725952148438 3.899322509765625 13.59725952148438 L 41.59274291992188 13.59725952148438 C 42.64003372192383 13.59725952148438 43.49206161499023 12.74522972106934 43.49206161499023 11.6979398727417 L 43.49206161499023 3.899310111999512 C 43.49206161499023 2.852029800415039 42.64003372192383 2 41.59274291992188 2 L 3.899322509765625 2 M 3.899322509765625 0 L 41.59274291992188 0 C 43.74627304077148 0 45.49206161499023 1.745779991149902 45.49206161499023 3.899310111999512 L 45.49206161499023 11.6979398727417 C 45.49206161499023 13.85147953033447 43.74627304077148 15.59725952148438 41.59274291992188 15.59725952148438 L 3.899322509765625 15.59725952148438 C 1.745780944824219 15.59725952148438 3.814697265625e-06 13.85147953033447 3.814697265625e-06 11.6979398727417 L 3.814697265625e-06 3.899310111999512 C 3.814697265625e-06 1.745779991149902 1.745780944824219 0 3.899322509765625 0 Z" stroke="none" fill="currentColor"/>
    </g>
    <path id="Path_242" data-name="Path 242" d="M6.97-1.51a.619.619,0,0,1,.152.751.65.65,0,0,1-.642.435H2.324L4.511,4.855a.68.68,0,0,1,0,.533.7.7,0,0,1-.37.381l-1.926.816a.68.68,0,0,1-.533,0,.7.7,0,0,1-.381-.37L-.777,1.3-4.171,4.692a.669.669,0,0,1-.49.207.674.674,0,0,1-.261-.054A.65.65,0,0,1-5.357,4.2V-12.161a.65.65,0,0,1,.435-.642.674.674,0,0,1,.261-.054.646.646,0,0,1,.49.207Z" transform="translate(26.996 17.375)" fill="currentColor"/>
  </g>
</svg>
