<svg xmlns="http://www.w3.org/2000/svg" xmlns:xlink="http://www.w3.org/1999/xlink" x="0px" y="0px" viewBox="0 0 458.4 237.8" style="enable-background:new 0 0 458.4 237.8;" xml:space="preserve">
	<path fill="#F5F7FA" d="M58.3,161.4c101.8,12.7-83.9,16.1-35.8,60.8s280.8-21.3,391.5-19s5.6-185.7-214.8-147.7S-43.5,148.6,58.3,161.4z"/>
	<path fill="#FFFFFF" stroke="#707070" d="M198.8,64.6l71.6,13.9l1.2,10.2h6l5.8,5.6v7l-5.8,5.1h-8.8l-7,9.5l-14.4,11.4l-7,1.4v6.3l7,1.9l8.8,13.9v12.3l-3.7,11.4l-7.4,7.9l-11.1,3.5l-15.1-2.1l-10.2-7.6l-6-13l1.9-12.3l4.2-8.1l-4.2-5.8v-6.3l2.1-8.8l-6.7-5.8l-7.2-11.8L190,90.3l-3.9-1.6l-6.5-4.4v-8.1L186,72h6.7L198.8,64.6z"/>
	<path fill="#FFFFFF" stroke="#707070" d="M201.9,54l68.5,12.9c0,0,12.5-27.1-18.5-43.8s-47.7,19.7-47.7,19.7L201.9,54z"/>
	<circle fill="#FFFFFF" cx="230.4" cy="159.3" r="26.8"/>
	<path fill="#435A6B" d="M230.4,37.3c-4.5-0.9-8.8,2.1-9.7,6.5l3.3,0.6c0.5-2.7,3-4.4,5.7-4s4.4,3,4,5.7c0,0,0,0.1,0,0.1l3.3,0.6C237.8,42.5,234.9,38.2,230.4,37.3C230.4,37.3,230.4,37.3,230.4,37.3z"/>
	<path fill="#435A6B" d="M251,41.3c-4.5-0.9-8.8,2.1-9.6,6.5c0,0,0,0,0,0l3.3,0.6c0.5-2.7,3-4.4,5.7-4c2.7,0.5,4.4,3,4,5.7c0,0,0,0.1,0,0.1l3.3,0.6C258.4,46.4,255.5,42.1,251,41.3z"/>
	<rect x="225.7" y="104.1" transform="matrix(0.1888 -0.982 0.982 0.1888 77.6249 311.4305)" fill="#435A6B" width="3.3" height="9.2"/>
	<rect x="227.5" y="94.8" transform="matrix(0.1888 -0.982 0.982 0.1888 88.233 305.6464)" fill="#435A6B" width="3.3" height="9.2"/>
	<rect x="229.2" y="85.6" transform="matrix(0.1888 -0.982 0.982 0.1888 98.7204 299.9042)" fill="#435A6B" width="3.3" height="9.2"/>
	<path fill="#435A6B" d="M282.7,105c1.3-1.4,2.2-3.1,2.5-5c1.1-5.5-2.6-10.9-8.1-11.9l-3.5-0.7c-0.1-3-0.6-6.1-1.3-9l-0.3-1L245,72.2l1.5-7.8l25.6,4.9l0.5-1.3c7.1-19.3-2.7-40.8-22.1-47.9s-40.8,2.7-47.9,22.1c-0.7,1.9-1.2,3.9-1.6,5.8c-0.4,2-0.6,4-0.7,6.1l0,1.4l24.9,4.8l-1.5,7.8l-26.2-5l-0.6,0.8c-1.7,2.3-3.2,4.8-4.4,7.5l-3.3-0.6c-5.5-1.1-10.9,2.6-11.9,8.1c-0.4,1.9-0.2,3.8,0.5,5.5l-12.4,18.9c-4.4,2.7-5.7,8.5-3,12.9c1.2,1.9,3.1,3.4,5.3,4l5.5,14.1l-2.5,2.9l3.5,10l9.5,1.8l0.6-3.3l-7.6-1.5l-2.2-6.4l4.4-5.1l6.7,1.3l2.5,7.3l3.1-1.1l-3.2-9.1l-10.4-2l-2,2.3l-4.3-10.9c5.2-0.5,8.9-5.2,8.3-10.3c-0.4-4.1-3.5-7.4-7.6-8.2c-0.6-0.1-1.2-0.2-1.8-0.2l9.3-14.3c1.5,1.7,3.5,2.8,5.7,3.3l3.3,0.6c0.7,12.2,6.6,23.6,16.2,31.2l-1.6,8.1c-1.5,8,3.7,15.8,11.7,17.3c0,0,0,0,0,0l9.1,1.7c8,1.5,15.8-3.7,17.3-11.7l1.6-8.1c11.6-3.4,21.2-11.6,26.5-22.5l3.8,0.7c2.2,0.4,4.5,0.1,6.5-0.9 M176.3,112.3c-0.6,3.3-3.8,5.5-7.1,4.8s-5.5-3.8-4.8-7.1c0.6-3.3,3.8-5.5,7.1-4.8C174.8,105.9,176.9,109,176.3,112.3z M204.3,48.7c3.5-18.4,21.4-30.5,39.8-27s30.5,21.4,27,39.8l0,0c-0.3,1.4-0.6,2.7-1,4.1l-66.2-12.7C203.8,51.4,204,50.1,204.3,48.7z M228.4,61l14.8,2.9l-1.5,7.8l-14.8-2.9L228.4,61z M185.9,87.5c-3.7-0.7-6.1-4.4-5.4-8.1c0.7-3.7,4.3-6.1,8-5.4l2.7,0.5c-0.8,2.1-1.4,4.3-1.8,6.6c-0.4,2.3-0.7,4.6-0.7,6.9L185.9,87.5L185.9,87.5z M238.2,137.4c-1.2,6.2-7.2,10.3-13.4,9.1l-9.1-1.7c-6.2-1.2-10.3-7.2-9.1-13.4l1.3-6.6c9.3,6.1,20.7,8.3,31.6,6.1L238.2,137.4L238.2,137.4z M223.7,127.6c-21.2-4.1-35.1-24.6-31.1-45.9c1-5.4,3.2-10.5,6.3-15l70.3,13.5c1.3,5.3,1.4,10.9,0.3,16.3C265.4,117.8,244.9,131.7,223.7,127.6L223.7,127.6z M273.9,104.9l-3.1-0.6c0.9-2.3,1.6-4.7,2-7.1c0.4-2.1,0.7-4.2,0.7-6.4l2.9,0.6c3.7,0.7,6.2,4.3,5.5,8c-0.7,3.7-4.3,6.2-8,5.5C273.9,104.9,273.9,104.9,273.9,104.9L273.9,104.9z"/>
	<path fill="#324350" d="M305.3,86.2c-5.3-1-8.7-6.1-7.7-11.3c1-5.3,6.1-8.7,11.3-7.7c5.3,1,8.7,6.1,7.7,11.3c0,0,0,0,0,0C315.6,83.7,310.6,87.2,305.3,86.2z M308.4,70.2c-3.6-0.7-7,1.6-7.7,5.2c-0.7,3.6,1.6,7,5.2,7.7c3.6,0.7,7-1.6,7.7-5.2c0,0,0,0,0,0C314.3,74.3,311.9,70.9,308.4,70.2C308.4,70.2,308.4,70.2,308.4,70.2z"/>
	<rect x="280.9" y="88.4" transform="matrix(0.8051 -0.5931 0.5931 0.8051 3.6223 191.1118)" fill="#324350" width="23.6" height="3.3"/>
	<rect x="304" y="60.8" transform="matrix(7.501373e-02 -0.9972 0.9972 7.501373e-02 226.6066 369.1502)" fill="#324350" width="16.6" height="3.3"/>
	<path fill="#324350" d="M307.8,54.7l-5.4-8.7l4.9-8.2l2.9,1.7l-3.9,6.5l3.4,5.5l6.3,0.3l3.5-5.7l-3.5-6.8l3-1.5l4.3,8.5l-5.4,9L307.8,54.7z"/>
	<path fill="#435A6B" d="M238.6,186.2c-15.1,4.5-31-4.2-35.5-19.3c-2.4-8.8-0.7-18.2,4.6-25.6l2.7,1.9c-4.7,6.5-6.3,14.9-4.1,22.7c4,13.4,18,21,31.4,17.1c13.4-4,21-18,17.1-31.4c-2.3-7.7-8.1-13.9-15.7-16.6l1.1-3.1c14.9,5.4,22.6,21.8,17.2,36.6C254.3,177,247.3,183.6,238.6,186.2z"/>
	<path fill="#324350" d="M309.2,42.5c-1.6-0.3-2.7-1.7-2.8-3.3l-0.1-2.7l-2.2,1.3c-0.7,0.4-1.4,0.6-2.2,0.5l-0.3,0c-0.8-0.2-1.5-0.6-2-1.2l-0.1-0.1c-1.4-1.5-2.6-3-3.7-4.7c-0.4-0.6-0.5-1.4-0.4-2.1c0.1-0.7,0.4-1.4,0.9-1.9c0.5-0.5,0.9-1,1.4-1.5c0.1-0.1,0.3-0.3,0.4-0.5l-2.9-0.7c-1.6-0.5-2.6-2-2.5-3.6l0.6-5.4c0.2-1.6,1.4-2.8,3-3l3-0.1c-0.4-0.7-0.9-1.4-1.3-2c-0.5-0.7-0.7-1.4-0.6-2.2c0.1-0.7,0.4-1.4,0.9-1.9c0.1-0.1,4.7-5,7.3-4.7l0.3,0c0.7,0.1,1.3,0.5,1.8,0.9l1.7,1.7c0.2-1,0.5-2,0.9-2.9c0.6-1.4,2-2.3,3.5-2.2l5.5,0.6l0.2,0c1.6,0.3,2.7,1.7,2.8,3.3l0.1,2.7l2.1-1.2c0.7-0.4,1.5-0.6,2.3-0.5l0.2,0c0.7,0.1,1.4,0.5,1.9,1l0.4,0.5c1.3,1.4,2.5,2.9,3.5,4.5c0.4,0.6,0.5,1.4,0.4,2.1c-0.1,0.7-0.4,1.4-0.9,1.9c-0.5,0.5-0.9,1-1.4,1.5c-0.1,0.1-0.3,0.3-0.4,0.4l2.9,0.8c1.6,0.5,2.6,2,2.4,3.6l-0.6,5.4c-0.2,1.6-1.5,2.9-3.1,3l-3,0.1c0.4,0.7,0.9,1.4,1.3,2c0.5,0.7,0.7,1.5,0.6,2.3c-0.1,0.8-0.5,1.5-1.1,2.1l0,0c0,0-4.6,4.8-7.2,4.5l-0.2,0c-0.6-0.1-1.2-0.4-1.6-0.8l-0.1-0.1l-1.8-1.7c-0.2,1-0.5,2-0.9,2.9c-0.6,1.4-2,2.3-3.5,2.2l-5.5-0.6L309.2,42.5z M314.9,17.8c-2.1-0.2-4,1.3-4.2,3.4c-0.2,2,1.1,3.8,3.1,4.2l0.3,0c2.1,0.3,4-1.2,4.3-3.3c0.3-2-1.1-3.9-3.1-4.2L314.9,17.8z"/>
	<path fill="#5CBCF6" d="M333,26.4c-0.1,0.4-0.4,0.7-0.8,0.8l-4.6,0.2c-0.3,0.7-0.7,1.5-1.2,2.1c0.7,1.3,1.5,2.5,2.2,3.7c0.1,0.2,0.2,0.4,0.2,0.6c0,0.2-0.1,0.4-0.3,0.5c-0.7,0.7-4.4,3.9-5.2,3.9c-0.2,0-0.4-0.1-0.6-0.3l-3.1-3c-0.8,0.3-1.5,0.5-2.3,0.7c-0.3,1.5-0.7,3-1.2,4.5c-0.1,0.4-0.5,0.6-1,0.6l-5.4-0.6c-0.4,0-0.8-0.4-0.8-0.8l-0.2-4.6c-0.7-0.3-1.4-0.7-2.1-1.1l-3.7,2.2c-0.2,0.1-0.4,0.2-0.6,0.1c-0.2,0-0.4-0.1-0.6-0.3c-1.3-1.4-2.5-2.9-3.6-4.6c-0.1-0.2-0.1-0.4-0.1-0.6c0-0.2,0.1-0.4,0.3-0.5c1-1,2-2,2.9-3.1c-0.3-0.8-0.6-1.7-0.7-2.5l-4.4-1.2c-0.4-0.1-0.7-0.5-0.6-1l0.6-5.4c0.1-0.4,0.4-0.7,0.8-0.8l4.6-0.2c0.3-0.8,0.7-1.5,1.2-2.1c-0.7-1.3-1.5-2.5-2.2-3.7c-0.1-0.2-0.2-0.4-0.2-0.6c0-0.2,0.1-0.4,0.3-0.5c0.7-0.7,4.4-3.9,5.2-3.9c0.2,0,0.4,0.1,0.6,0.3l3.1,3c0.8-0.3,1.5-0.5,2.3-0.7c0.3-1.5,0.7-3,1.2-4.5c0.1-0.4,0.5-0.6,1-0.6l5.4,0.6c0.4,0,0.8,0.4,0.8,0.8l0.2,4.6c0.7,0.3,1.4,0.7,2.1,1.1l3.8-2.2c0.2-0.1,0.4-0.2,0.6-0.1c0.2,0,0.4,0.1,0.6,0.3c1.3,1.4,2.5,3,3.6,4.6c0.1,0.2,0.1,0.4,0.1,0.6c0,0.2-0.1,0.4-0.3,0.5c-1,1-2,2-2.9,3.1c0.3,0.8,0.6,1.6,0.7,2.5L333,20c0.4,0.1,0.7,0.5,0.6,1L333,26.4z M315.2,15.3c-3.5-0.4-6.6,2.1-7,5.6c-0.4,3.5,2.1,6.6,5.6,7s6.6-2.1,7-5.6c0,0,0,0,0,0C321.1,18.8,318.7,15.7,315.2,15.3L315.2,15.3z"/>
	<path fill="#435A6B" d="M342.5,183.3c0-1.2-1-2.2-2.2-2.2c0,0-0.1,0-0.1,0h-43c-1.2-0.1-2.2,0.9-2.2,2.1c-0.1,1.2,0.9,2.2,2.1,2.2c0.1,0,0.1,0,0.2,0h43C341.6,185.8,342.5,184.5,342.5,183.3z"/>
	<path fill="#435A6B" d="M354.1,185.8h13.8c1.2,0.1,2.2-0.9,2.2-2.1c0.1-1.2-0.9-2.2-2.1-2.2c-0.1,0-0.1,0-0.2,0h-13.8c-1.2-0.1-2.2,0.9-2.3,2.1c0,0,0,0.1,0,0.1C352,184.8,352.9,185.7,354.1,185.8z"/>
	<path fill="#435A6B" d="M297.4,167.6h-28c-1.1-0.1-2,0.8-2.1,1.9s0.8,2,1.9,2.1c0.1,0,0.1,0,0.2,0h28c1.1,0.1,2-0.8,2.1-1.9c0.1-1.1-0.8-2-1.9-2.1C297.6,167.6,297.5,167.6,297.4,167.6z"/>
	<path fill="#435A6B" d="M316.7,167.6h-9c-1.1-0.1-2,0.8-2.1,1.9s0.8,2,1.9,2.1c0.1,0,0.1,0,0.2,0h9c1.1,0.1,2-0.8,2.1-1.9c0,0,0-0.1,0-0.1C319.1,168.5,317.9,167.6,316.7,167.6z"/>
	<path fill="#435A6B" d="M230.4,176.4c-7.6,0-14.2-5-16.4-12.2c-2.1-6.9,0.5-14.3,6.4-18.4l2,2.4c-6.2,4.4-7.7,13-3.3,19.2c4.4,6.2,13,7.7,19.2,3.3c6.2-4.4,7.7-13,3.3-19.2c-2-2.9-5.1-4.8-8.5-5.5l2.3-2.7c5.6,1.4,9.9,5.7,11.3,11.3c2.7,9-2.5,18.5-11.5,21.2C233.7,176.1,232.1,176.3,230.4,176.4z"/>
	<circle fill="#FFFFFF" cx="336.5" cy="40.3" r="4.8"/>
</svg>
