<svg xmlns="http://www.w3.org/2000/svg" xmlns:xlink="http://www.w3.org/1999/xlink" x="0px" y="0px" viewBox="0 0 173 91.3" style="enable-background:new 0 0 173 91.3;" xml:space="preserve">
	<path fill="#F5F7FA" d="M128.5,44.9c-1.9,7.7,53.7,0.8,43.1,27S54.1,82,18.7,90.7s-22.1-95,53-90.5S130.5,37.2,128.5,44.9z"/>
	<path fill="#435A6B" d="M130.9,69.7c0.5,0,0.9,0.4,0.9,0.9c0,0.5-0.4,0.9-0.9,0.9h-58c-0.5,0-0.9-0.4-0.9-0.9c0-0.5,0.4-0.9,0.9-0.9h9.4v-2.1c0-0.5,0.4-0.9,0.9-0.9s0.9,0.4,0.9,0.9v2.1h2.8v-6.3c0-0.5,0.4-0.9,0.9-0.9s0.9,0.4,0.9,0.9v6.3h28.8v-4.5c0-0.5,0.4-0.9,0.9-0.9c0.5,0,0.9,0.4,0.9,0.9v4.5h1.8V67c0-0.5,0.4-0.9,0.9-0.9c0.5,0,0.9,0.4,0.9,0.9v2.7h1.8v-8.5c0-0.5,0.4-0.9,0.9-0.9c0.5,0,0.9,0.4,0.9,0.9v8.5L130.9,69.7z"/>
	<path fill="#435A6B" d="M103.2,24.7v44.9h-1.8V24.7l0,0V8.2l0,0V5.3c-1.4-0.5-2.2-2.1-1.7-3.5c0.4-1.1,1.4-1.8,2.6-1.8l0,0c1.5,0,2.7,1.2,2.7,2.7c0,1.2-0.7,2.2-1.8,2.6v2.9"/>
	<path fill="#F5F7FA" d="M83.4,12.9v9.8c0,0.7,0.6,1.3,1.3,1.3c0,0,0,0,0,0h36.2c0.4,0,0.8-0.2,1-0.5l4.1-4.9c0.4-0.5,0.4-1.2,0-1.7l-3.8-4.9c-0.2-0.3-0.6-0.5-1-0.5H84.7C84,11.5,83.4,12.1,83.4,12.9z"/>
	<path fill="#435A6B" d="M120.9,24.6H84.7c-1.1,0-2-0.9-2-2c0,0,0,0,0,0v-9.8c0-1.1,0.9-2,2-2c0,0,0,0,0,0h36.5c0.6,0,1.2,0.3,1.6,0.8l3.8,4.9c0.6,0.7,0.6,1.8,0,2.5l-4.1,4.9C122.1,24.4,121.5,24.6,120.9,24.6z M84.7,12.2c-0.4,0-0.7,0.3-0.7,0.7c0,0,0,0,0,0v9.8c0,0.4,0.3,0.7,0.7,0.7c0,0,0,0,0,0h36.2c0.2,0,0.4-0.1,0.5-0.2l4.1-4.9c0.2-0.2,0.2-0.6,0-0.8l-3.8-4.9c-0.1-0.2-0.3-0.3-0.5-0.3L84.7,12.2z"/>
	<path fill="#5CBCF6" d="M118.6,40.9v-6.6c0-0.7-0.6-1.3-1.3-1.3c0,0,0,0,0,0H90.7c-0.4,0-0.8,0.2-1,0.5L87,36.7c-0.4,0.5-0.4,1.2,0,1.7l2.6,3.3c0.2,0.3,0.6,0.5,1,0.5h26.7C118,42.2,118.6,41.6,118.6,40.9z"/>
	<path fill="#435A6B" d="M117.3,42.8H90.6c-0.6,0-1.2-0.3-1.6-0.8l-2.6-3.3c-0.6-0.7-0.6-1.8,0-2.5l2.8-3.3c0.4-0.5,0.9-0.7,1.5-0.7h26.5c1.1,0,2,0.9,2,2c0,0,0,0,0,0v6.6C119.3,42,118.4,42.8,117.3,42.8z M90.7,33.6c-0.2,0-0.4,0.1-0.5,0.2l-2.8,3.3c-0.2,0.2-0.2,0.6,0,0.8l2.6,3.3c0.1,0.2,0.3,0.3,0.5,0.3h26.7c0.4,0,0.7-0.3,0.7-0.7c0,0,0,0,0,0v-6.6c0-0.4-0.3-0.7-0.7-0.7c0,0,0,0,0,0L90.7,33.6L90.7,33.6z"/>
	<path fill="#435A6B" d="M116.9,39.4H109c-0.3,0-0.5,0.2-0.4,0.5c0,0,0,0,0,0c0,0.3,0.2,0.5,0.4,0.5h7.9c0.3-0.1,0.5-0.3,0.4-0.6C117.3,39.6,117.1,39.4,116.9,39.4L116.9,39.4z"/>
	<path fill="#435A6B" d="M103.9,40.5h2.5c0.3,0,0.5-0.2,0.4-0.5c0,0,0,0,0,0c0-0.3-0.2-0.5-0.4-0.5h-2.5c-0.3,0.1-0.5,0.3-0.4,0.6C103.5,40.3,103.7,40.4,103.9,40.5z"/>
	<path fill="#435A6B" d="M97.4,20.8c0-0.3-0.3-0.6-0.6-0.6c0,0,0,0,0,0H85.3c-0.3,0-0.6,0.3-0.6,0.6c0,0.3,0.3,0.6,0.6,0.6h11.5C97.2,21.5,97.4,21.1,97.4,20.8z"/>
	<path fill="#435A6B" d="M100.5,21.5h3.7c0.3,0,0.6-0.3,0.6-0.6c0-0.3-0.3-0.6-0.6-0.6h-3.7c-0.3,0-0.6,0.3-0.6,0.6c0,0,0,0,0,0C99.9,21.2,100.2,21.4,100.5,21.5z"/>
	<path fill="#435A6B" d="M98.6,16.6h-7.5c-0.3,0-0.6,0.3-0.5,0.6c0,0.3,0.3,0.5,0.5,0.5h7.5c0.3,0,0.6-0.3,0.5-0.6C99.1,16.9,98.9,16.6,98.6,16.6z"/>
	<path fill="#435A6B" d="M87.7,16.6h-2.4c-0.3,0-0.6,0.3-0.5,0.6c0,0.3,0.3,0.5,0.5,0.5h2.4c0.3,0,0.6-0.2,0.6-0.5c0,0,0,0,0,0C88.4,16.9,88.1,16.6,87.7,16.6z"/>
</svg>