<svg xmlns="http://www.w3.org/2000/svg" xmlns:xlink="http://www.w3.org/1999/xlink" x="0px" y="0px" width="18" height="18" viewBox="0 0 20.2 20.2" style="enable-background:new 0 0 20.2 20.2;" xml:space="preserve">
	<ellipse fill="none" stroke="currentColor" stroke-linecap="round" stroke-linejoin="round" stroke-miterlimit="10"  cx="9.9" cy="10.2" rx="6.3" ry="6.4"/>
	<path fill="none" stroke="currentColor" stroke-linecap="round" stroke-linejoin="round" stroke-miterlimit="10"  d="M1.2,6.4l1.2-2l1.4,0.9L5,3.9L4.1,2.4l2.1-1.1L7,2.8l1.8-0.6l0.1-1.7H11l0,1.7l1.8,0.5l0.8-1.3l1.9,1.2l-0.8,1.3l1.5,1.5l1.2-0.9l1,1.9l-1.3,0.9l0.5,2l2,0l-0.1,2.1l-1.8,0.1l-0.5,1.7l1.5,1l-1.2,1.9l-1.6-1l-1.3,1.4l1.1,1.5l-2.1,1.1l-0.8-1.4L11,18.3l0,1.4l-2.3-0.1l0.1-1.3l-2-0.5L6.2,19l-1.9-1.2l0.8-1.3l-1.6-1.3l-1.2,0.8l-1-2l1.4-0.6l-0.6-2H0.5l0-2.3l1.6,0l0.4-1.8L1.2,6.4z"/>
	<circle fill="none" stroke="currentColor" stroke-linecap="round" stroke-linejoin="round" stroke-miterlimit="10"  cx="9.9" cy="10.2" r="2.5"/>
</svg>