<svg xmlns="http://www.w3.org/2000/svg" xmlns:xlink="http://www.w3.org/1999/xlink" x="0px" y="0px" width="19" height="18" viewBox="0 0 20.5 19.2" style="enable-background:new 0 0 20.5 19.2;" xml:space="preserve">
	<path fill="none" stroke="currentColor" d="M18.2,6.6c0,0,4,1.9,0,4.1"/>
	<path fill="none" stroke="currentColor" stroke-linecap="round" d="M16.5,5.2C15,6.7,13,7.7,10.8,8"/>
	<path fill="none" stroke="currentColor" stroke-linejoin="round" d="M3.3,11.7l0,7h4.6c0,0-2.4-1.7-1.9-7"/>
	<path fill="none" stroke="currentColor" d="M8.7,11.4c0,0,0.1,3.4-2.7,3.7"/>
	<path fill="none" stroke="currentColor" stroke-linecap="round" stroke-linejoin="round" d="M10,6c5-1.2,8.2-5.5,8.2-5.5v15.2c0,0-4.8-4-7.9-4.3S4.5,12,2.6,12s-2.1-0.8-2.1-0.8V8C0.4,7.2,0.9,6.5,1.7,6.4l7.7-0.3L10,6z"/>
	<path fill="none" stroke="currentColor" d="M7.3,6.1v5.3"/>
</svg>