<svg xmlns="http://www.w3.org/2000/svg" xmlns:xlink="http://www.w3.org/1999/xlink" x="0px" y="0px" width="18" height="18" viewBox="0 0 21.3 21.2" enable-background="new 0 0 21.3 21.2" xml:space="preserve">
	<path fill="none" stroke="currentColor" stroke-linecap="round" stroke-linejoin="round" d="M14.9,11.2c0.7-0.7,1.6-1.1,2.6-1c1.8,0,3.3,1.4,3.3,3.2s-1.4,3.3-3.2,3.3c0,0-0.1,0-0.1,0c-1,0-1.9-0.4-2.6-1.1l0,0v5.1H0.5v-5.1l0,0c0.7,0.6,1.6,0.9,2.6,0.9c1.7,0,3.2-1.4,3.1-3.2c0,0,0,0,0-0.1C6.2,11.5,4.8,10,3,10c-1,0-1.9,0.4-2.5,1.2h0v-5h5.3C5.1,5.6,4.6,4.7,4.6,3.7c0-1.8,1.5-3.2,3.3-3.2c1.7,0,3.2,1.4,3.2,3.2c0,1-0.4,2-1.2,2.6h5.1L14.9,11.2L14.9,11.2z"/>
</svg>