<svg version="1.1" id="Ñëîé_1" xmlns="http://www.w3.org/2000/svg" xmlns:xlink="http://www.w3.org/1999/xlink" width="21" height="18" viewBox="0 0 18.8 16.3" fill="#FFFFFF" style="enable-background:new 0 0 18.8 16.3;" xml:space="preserve">
	<g>
		<path class="st1" d="M15.7,0.1C15.5,0,15.4,0,15.2,0c-0.3,0-0.6,0.1-1.9,1.1c-1,0.7-2,1.6-3.1,2.7C9,4.9,8,5.9,7.2,6.7l0,0l0,0
			c-1,1.2-1.4,2-1.3,2.6l0.1,0.4L5.5,9.8C4.8,9.8,4.3,10,3.8,10.4c-0.1,0.1-0.2,0.2-0.3,0.3c-0.3,0.4-0.6,0.8-0.8,1.4
			c-0.1,0.4-0.4,0.7-0.7,0.9c-0.3,0.2-0.6,0.4-1,0.4l-1,0.2l0.6,0.8C1.4,15.4,2.5,16,4,16c0,0,0,0,0,0l0,0c1.5,0,2.7-0.4,3.4-1.3
			c0.4-0.4,0.6-0.9,0.8-1.5c0.1-0.5,0.2-0.9,0.1-1.3l0-0.4l0.4-0.1c0.6-0.1,1.3-0.6,2.3-1.9c0.7-0.9,1.6-2.1,2.4-3.5
			c0.8-1.2,1.4-2.4,1.9-3.5c0.3-0.6,0.4-1,0.5-1.3C15.9,1,16.1,0.5,15.7,0.1z M3.8,11.2 M3.9,11.2C4,11.1,4.1,11,4.2,10.9
			c0.3-0.3,0.8-0.4,1.3-0.5l0.6-0.1l0.2,0.1l1.2,0.9l0.1,0l0,0.5c0.1,0.3,0,0.7-0.1,1.1c-0.1,0.5-0.3,0.9-0.6,1.2
			c-0.6,0.7-1.5,1.1-2.8,1.1l0,0c0,0-0.1,0-0.1,0c0,0,0.1,0,0.1,0C4.5,13.4,4.2,12.1,3.9,11.2L3.9,11.2z M14.7,2.3
			c-0.5,1.1-1.1,2.2-1.9,3.4c-0.8,1.4-1.6,2.5-2.3,3.4c-0.8,1-1.5,1.6-1.9,1.6l-0.6,0.1L6.7,10L6.5,9.8L6.5,9.2
			C6.4,8.8,6.8,8.2,7.6,7.1c0.8-0.9,1.7-1.8,3-2.9c1.1-1,2.1-1.9,3.1-2.6c0.8-0.6,1.4-1,1.5-1c0,0,0,0,0.1,0
			C15.4,0.7,15.2,1.3,14.7,2.3z"/>
		<path class="st1" d="M12.3,3.2c0,0-1.2,1.1-2.1,2s0.1,0.4,0.6-0.1c0.5-0.4,1.6-1.7,1.7-1.9C12.7,3.1,12.6,3,12.3,3.2z"/>
	</g>
</svg>
