<svg xmlns="http://www.w3.org/2000/svg" width="32.371" height="28.512" viewBox="0 0 32.371 28.512">
  <g id="Icon-Gallery" transform="translate(-32.579 -18.664)">
    <path id="Path_224" data-name="Path 224" d="M7.773,295.714H27.808a5.788,5.788,0,0,1,1.946.31l-.708-2.875a4.859,4.859,0,0,0-5.882-3.538L3.748,294.475A4.859,4.859,0,0,0,.21,300.357l2.4,7.727v-6.828C2.567,297.675,4.191,295.714,7.773,295.714Z" transform="translate(32.519 -270.796)" fill="currentColor"/>
    <path id="Path_836" data-name="Path 836" d="M11.375-21a2.531,2.531,0,0,1,1.859.766A2.531,2.531,0,0,1,14-18.375v15.75a2.531,2.531,0,0,1-.766,1.859A2.531,2.531,0,0,1,11.375,0h-22.75a2.531,2.531,0,0,1-1.859-.766A2.531,2.531,0,0,1-14-2.625v-15.75a2.531,2.531,0,0,1,.766-1.859A2.531,2.531,0,0,1-11.375-21ZM11.047-2.625a.315.315,0,0,0,.219-.109.315.315,0,0,0,.109-.219V-18.047a.315.315,0,0,0-.109-.219.315.315,0,0,0-.219-.109H-11.047a.315.315,0,0,0-.219.109.315.315,0,0,0-.109.219V-2.953a.315.315,0,0,0,.109.219.315.315,0,0,0,.219.109ZM-7-16.187a2.117,2.117,0,0,1,1.559.629A2.117,2.117,0,0,1-4.812-14a2.117,2.117,0,0,1-.629,1.559A2.117,2.117,0,0,1-7-11.812a2.117,2.117,0,0,1-1.559-.629A2.117,2.117,0,0,1-9.187-14a2.117,2.117,0,0,1,.629-1.559A2.117,2.117,0,0,1-7-16.187ZM-8.75-5.25V-7.875l2.188-2.187a.591.591,0,0,1,.438-.164.591.591,0,0,1,.438.164L-3.5-7.875l6.563-6.562A.591.591,0,0,1,3.5-14.6a.591.591,0,0,1,.438.164L8.75-9.625V-5.25Z" transform="translate(50.949 47.176)" fill="currentColor"/>
  </g>
</svg>
