<svg xmlns="http://www.w3.org/2000/svg" width="48.49" height="25.892" viewBox="0 0 48.49 25.892">
  <g id="Icon-Product-Stream" transform="translate(-3.258 -2.917)">
    <path id="Path_848" data-name="Path 848" d="M-2.242-5.625,0-7.25,2.242-5.625,1.391-3H-1.383Zm-.477-5.82A6.843,6.843,0,0,1,0-12a6.843,6.843,0,0,1,2.719.555A7.032,7.032,0,0,1,4.953-9.953,7.032,7.032,0,0,1,6.445-7.719,6.843,6.843,0,0,1,7-5a6.843,6.843,0,0,1-.555,2.719A7.032,7.032,0,0,1,4.953-.047,7.032,7.032,0,0,1,2.719,1.445,6.843,6.843,0,0,1,0,2a6.843,6.843,0,0,1-2.719-.555A7.032,7.032,0,0,1-4.953-.047,7.032,7.032,0,0,1-6.445-2.281,6.843,6.843,0,0,1-7-5a6.843,6.843,0,0,1,.555-2.719A7.032,7.032,0,0,1-4.953-9.953,7.032,7.032,0,0,1-2.719-11.445ZM4.836-1.453A5.85,5.85,0,0,0,6-5v-.023l-.8.7L3.328-6.078,3.82-8.6l1.047.094a5.879,5.879,0,0,0-3.039-2.2l.414.969L0-8.5-2.242-9.742l.414-.969a5.879,5.879,0,0,0-3.039,2.2L-3.812-8.6l.484,2.523L-5.2-4.328l-.8-.7V-5A5.85,5.85,0,0,0-4.836-1.453L-4.6-2.484l2.547.313L-.969.156-1.875.7A5.891,5.891,0,0,0,0,1,5.891,5.891,0,0,0,1.875.7L.969.156,2.055-2.172,4.6-2.484Z" transform="translate(10.258 14.917)" fill="currentColor"/>
    <path id="Path_847" data-name="Path 847" d="M2.264-.139A22.942,22.942,0,0,0,1.076-4.366H1.059l-.017.008-.365.14q-.229.089-.857.416a10.892,10.892,0,0,0-1.163.7,7.367,7.367,0,0,0-1.112.972A4.548,4.548,0,0,0-3.33-.877l-.127-.093A5.463,5.463,0,0,0,.091.3,5.567,5.567,0,0,0,2.264-.139ZM.694-5.292q-.178-.416-.45-.942a19.858,19.858,0,0,1-5.713.789,1.372,1.372,0,0,0-.008.178A5.463,5.463,0,0,0-5.1-3.259,5.574,5.574,0,0,0-4.052-1.548,7.117,7.117,0,0,1-3-2.961a7.588,7.588,0,0,1,1.21-1.057q.586-.4,1.108-.688a6.526,6.526,0,0,1,.845-.407l.314-.11.11-.03A.67.67,0,0,0,.694-5.292Zm-.908-1.8A29.21,29.21,0,0,0-2.286-10.3,5.494,5.494,0,0,0-4.272-8.721,5.5,5.5,0,0,0-5.359-6.412,20.144,20.144,0,0,0-.215-7.091ZM5.592-4.383A8.021,8.021,0,0,0,2.12-4.63,23.914,23.914,0,0,1,3.206-.648a5.563,5.563,0,0,0,1.57-1.609A5.49,5.49,0,0,0,5.592-4.383Zm-6.834-6.29a.024.024,0,0,0-.017.008A.024.024,0,0,1-1.242-10.674ZM3.767-9.443A5.366,5.366,0,0,0,.091-10.835a5.615,5.615,0,0,0-1.316.161A24.228,24.228,0,0,1,.863-7.431a7.885,7.885,0,0,0,1.1-.514,7.445,7.445,0,0,0,.819-.522,5.453,5.453,0,0,0,.556-.484,3.685,3.685,0,0,0,.318-.344ZM5.66-5.326a5.447,5.447,0,0,0-1.265-3.48L4.386-8.8q-.076.1-.161.208a4.874,4.874,0,0,1-.369.378,7.029,7.029,0,0,1-.6.514,8.638,8.638,0,0,1-.849.552A8.688,8.688,0,0,1,1.288-6.6q.212.45.374.806.017.042.055.144A.974.974,0,0,0,1.78-5.5q.306-.042.632-.059t.624-.017q.3,0,.586.013t.543.034q.255.021.48.047t.407.055l.31.051q.127.021.212.038Zm.076-3.213A6.378,6.378,0,0,1,6.61-5.266a6.378,6.378,0,0,1-.874,3.272A6.49,6.49,0,0,1,3.363.379a6.378,6.378,0,0,1-3.272.874A6.378,6.378,0,0,1-3.182.379,6.49,6.49,0,0,1-5.554-1.994a6.378,6.378,0,0,1-.874-3.272,6.378,6.378,0,0,1,.874-3.272,6.49,6.49,0,0,1,2.373-2.373,6.378,6.378,0,0,1,3.272-.874,6.378,6.378,0,0,1,3.272.874A6.49,6.49,0,0,1,5.736-8.539Z" transform="translate(37.836 14.736)" fill="currentColor"/>
    <path id="Path_852" data-name="Path 852" d="M1.059,0H19.431a1.059,1.059,0,1,1,0,2.118H1.059A1.059,1.059,0,0,1,1.059,0Z" transform="translate(3.258 21.805)" fill="currentColor"/>
    <path id="Path_851" data-name="Path 851" d="M1.059,0H19.431a1.059,1.059,0,1,1,0,2.118H1.059A1.059,1.059,0,0,1,1.059,0Z" transform="translate(31.258 21.805)" fill="currentColor"/>
    <path id="Path_850" data-name="Path 850" d="M1.059,0H15.23a1.059,1.059,0,0,1,0,2.118H1.059A1.059,1.059,0,0,1,1.059,0Z" transform="translate(3.258 26.691)" fill="currentColor"/>
    <path id="Path_849" data-name="Path 849" d="M1.059,0H15.23a1.059,1.059,0,0,1,0,2.118H1.059A1.059,1.059,0,0,1,1.059,0Z" transform="translate(31.258 26.691)" fill="currentColor"/>
  </g>
</svg>
