<svg xmlns="http://www.w3.org/2000/svg" width="55.004" height="23.066" viewBox="0 0 55.004 23.066">
  <g id="Icon-Banner" transform="translate(-15 -26.835)">
    <path id="Path_842" data-name="Path 842" d="M3.846-.365h.537a.249.249,0,0,1,.183.075.249.249,0,0,1,.075.183V.43a.249.249,0,0,1-.075.183.249.249,0,0,1-.183.075H1.8A.249.249,0,0,1,1.622.612.249.249,0,0,1,1.547.43V-.107A.249.249,0,0,1,1.622-.29.249.249,0,0,1,1.8-.365h.645L1.7-2.514H-1.719L-2.471-.365H-1.8a.249.249,0,0,1,.183.075.249.249,0,0,1,.075.183V.43a.249.249,0,0,1-.075.183A.249.249,0,0,1-1.8.688H-4.383A.249.249,0,0,1-4.565.612.249.249,0,0,1-4.641.43V-.107A.249.249,0,0,1-4.565-.29a.249.249,0,0,1,.183-.075h.537l3.008-8.4A.251.251,0,0,1-.58-8.937H.58a.251.251,0,0,1,.258.172ZM-1.375-3.609H1.354L.193-6.939Q.107-7.2.043-7.455L0-7.691H0a6.489,6.489,0,0,1-.193.752Z" transform="translate(29.759 42.158)" fill="currentColor"/>
    <path id="Path_843" data-name="Path 843" d="M6.094-11.25a1.356,1.356,0,0,1,1,.41,1.356,1.356,0,0,1,.41,1v8.438a1.356,1.356,0,0,1-.41,1,1.356,1.356,0,0,1-1,.41H-6.094a1.356,1.356,0,0,1-1-.41,1.356,1.356,0,0,1-.41-1V-9.844a1.356,1.356,0,0,1,.41-1,1.356,1.356,0,0,1,1-.41ZM5.918-1.406a.169.169,0,0,0,.117-.059.169.169,0,0,0,.059-.117V-9.668a.169.169,0,0,0-.059-.117.169.169,0,0,0-.117-.059H-5.918a.169.169,0,0,0-.117.059.169.169,0,0,0-.059.117v8.086a.169.169,0,0,0,.059.117.169.169,0,0,0,.117.059ZM-3.75-8.672a1.134,1.134,0,0,1,.835.337,1.134,1.134,0,0,1,.337.835,1.134,1.134,0,0,1-.337.835,1.134,1.134,0,0,1-.835.337,1.134,1.134,0,0,1-.835-.337A1.134,1.134,0,0,1-4.922-7.5a1.134,1.134,0,0,1,.337-.835A1.134,1.134,0,0,1-3.75-8.672Zm-.937,5.859V-4.219l1.172-1.172a.317.317,0,0,1,.234-.088.317.317,0,0,1,.234.088l1.172,1.172L1.641-7.734a.317.317,0,0,1,.234-.088.317.317,0,0,1,.234.088L4.688-5.156v2.344Z" transform="translate(54.825 43.384)" fill="currentColor"/>
    <g id="Path_844" data-name="Path 844" transform="translate(15 26.835)" fill="none">
      <path d="M5,0H50a5,5,0,0,1,5,5V18.066a5,5,0,0,1-5,5H5a5,5,0,0,1-5-5V5A5,5,0,0,1,5,0Z" stroke="none"/>
      <path d="M 5 1.999996185302734 C 3.345790863037109 1.999996185302734 2 3.345785140991211 2 4.999996185302734 L 2 18.06605529785156 C 2 19.72026634216309 3.345790863037109 21.06605529785156 5 21.06605529785156 L 50.003662109375 21.06605529785156 C 51.65787124633789 21.06605529785156 53.003662109375 19.72026634216309 53.003662109375 18.06605529785156 L 53.003662109375 4.999996185302734 C 53.003662109375 3.345785140991211 51.65787124633789 1.999996185302734 50.003662109375 1.999996185302734 L 5 1.999996185302734 M 5 -3.814697265625e-06 L 50.003662109375 -3.814697265625e-06 C 52.76507949829102 -3.814697265625e-06 55.003662109375 2.238574981689453 55.003662109375 4.999996185302734 L 55.003662109375 18.06605529785156 C 55.003662109375 20.82747650146484 52.76507949829102 23.06605529785156 50.003662109375 23.06605529785156 L 5 23.06605529785156 C 2.238571166992188 23.06605529785156 0 20.82747650146484 0 18.06605529785156 L 0 4.999996185302734 C 0 2.238574981689453 2.238571166992188 -3.814697265625e-06 5 -3.814697265625e-06 Z" stroke="none" fill="currentColor"/>
    </g>
  </g>
</svg>
