<svg xmlns="http://www.w3.org/2000/svg" viewBox="0 0 264.92 86.77"><defs><style>.cls-1{fill:#525252;}.cls-2{fill:#f8bf00;}.cls-3{fill:none;stroke:#fff;stroke-linecap:round;stroke-linejoin:round;stroke-width:3px;}</style></defs><title>Element 5</title><g id="Ebene_2" data-name="Ebene 2"><g id="Layer_1" data-name="Layer 1"><path class="cls-1" d="M136.25,10.13q4.19,4,4.19,12v21h-8.57V23.23q0-4.8-2.27-7.23a8.35,8.35,0,0,0-6.44-2.44,9.89,9.89,0,0,0-7.48,2.85q-2.75,2.85-2.74,8.19V43.12h-8.58V6.5h8.17v4.73a13.41,13.41,0,0,1,5.34-3.84,19.26,19.26,0,0,1,7.27-1.3Q132.07,6.09,136.25,10.13Z"/><path class="cls-1" d="M158.13,41.2a17.51,17.51,0,0,1-7-6.69,18.84,18.84,0,0,1-2.5-9.7,18.68,18.68,0,0,1,2.5-9.67,17.55,17.55,0,0,1,7-6.65,22.22,22.22,0,0,1,20.09,0,17.55,17.55,0,0,1,7,6.65,18.69,18.69,0,0,1,2.51,9.67,18.85,18.85,0,0,1-2.51,9.7,17.51,17.51,0,0,1-7,6.69,22.22,22.22,0,0,1-20.09,0ZM176,33.11a11.36,11.36,0,0,0,3.09-8.3,11.35,11.35,0,0,0-3.09-8.3,10.48,10.48,0,0,0-7.82-3.15,10.36,10.36,0,0,0-7.78,3.15,11.4,11.4,0,0,0-3.05,8.3,11.42,11.42,0,0,0,3.05,8.3,10.36,10.36,0,0,0,7.78,3.15A10.48,10.48,0,0,0,176,33.11Z"/><path class="cls-1" d="M229.18,6.5,213.47,43.12h-8.84L188.92,6.5h8.92l11.38,27.16L221,6.5Z"/><path class="cls-1" d="M259.73,10Q264,13.85,264,21.65V43.12h-8.09V38.66a9.94,9.94,0,0,1-4.49,3.67,17.49,17.49,0,0,1-7,1.27,17.19,17.19,0,0,1-7.2-1.41,11.06,11.06,0,0,1-4.77-3.91,9.88,9.88,0,0,1-1.68-5.65,9.7,9.7,0,0,1,3.67-7.92q3.68-3,11.56-3h9.46v-.55a7.46,7.46,0,0,0-2.3-5.89c-1.53-1.38-3.8-2.06-6.82-2.06a19.7,19.7,0,0,0-6.07,1,14.92,14.92,0,0,0-5,2.67l-3.36-6.24a20.91,20.91,0,0,1,6.93-3.36,31,31,0,0,1,8.57-1.16Q255.44,6.09,259.73,10Zm-7.82,25.92a8,8,0,0,0,3.53-4.21V27.41H246.6q-7.41,0-7.41,4.87A4.39,4.39,0,0,0,241,36a8.53,8.53,0,0,0,5.14,1.37A11,11,0,0,0,251.91,35.88Z"/><path class="cls-1" d="M116,78.68a4.75,4.75,0,0,1-1.77,1A7.07,7.07,0,0,1,112,80a5,5,0,0,1-5.52-5.48V63.14h-3.37V61h3.37V56.87h2.54V61h5.73v2.15h-5.73V74.38a3.52,3.52,0,0,0,.85,2.56,3.16,3.16,0,0,0,2.41.88,4.53,4.53,0,0,0,1.52-.25,3.9,3.9,0,0,0,1.28-.72Z"/><path class="cls-1" d="M136.35,71.19H120.59a6.78,6.78,0,0,0,2.26,4.75A7.52,7.52,0,0,0,128,77.75a8.08,8.08,0,0,0,3.22-.63,7,7,0,0,0,2.54-1.84l1.44,1.64a8.07,8.07,0,0,1-3.14,2.3,10.66,10.66,0,0,1-4.13.78,10.48,10.48,0,0,1-5.14-1.23,9,9,0,0,1-3.5-3.42,9.83,9.83,0,0,1-1.25-4.94,10.13,10.13,0,0,1,1.2-5,8.7,8.7,0,0,1,3.3-3.4,9.66,9.66,0,0,1,9.4,0,8.65,8.65,0,0,1,3.26,3.39,10.24,10.24,0,0,1,1.18,5Zm-13.66-6.42a6.8,6.8,0,0,0-2.1,4.52H134a6.75,6.75,0,0,0-2.09-4.52,6.91,6.91,0,0,0-9.17,0Z"/><path class="cls-1" d="M170.64,62.88c1.35,1.37,2,3.37,2,6V79.82h-2.54V69.15a6.38,6.38,0,0,0-1.41-4.47,5.16,5.16,0,0,0-4-1.54,6,6,0,0,0-4.62,1.8,7.08,7.08,0,0,0-1.68,5v9.88h-2.54V69.15a6.33,6.33,0,0,0-1.42-4.47,5.17,5.17,0,0,0-4-1.54,6,6,0,0,0-4.6,1.8,7,7,0,0,0-1.7,5v9.88h-2.54V61H144v3.43a6.88,6.88,0,0,1,2.8-2.65,8.78,8.78,0,0,1,4.12-.93,8.07,8.07,0,0,1,4.1,1,6.15,6.15,0,0,1,2.59,3,7.38,7.38,0,0,1,3-2.92,9.27,9.27,0,0,1,4.46-1.06A7.49,7.49,0,0,1,170.64,62.88Z"/><path class="cls-1" d="M194.08,62a8.65,8.65,0,0,1,3.37,3.39,10,10,0,0,1,1.21,5,10.15,10.15,0,0,1-1.21,5,8.64,8.64,0,0,1-3.35,3.38,9.66,9.66,0,0,1-4.82,1.2,8.83,8.83,0,0,1-4.14-1,7.78,7.78,0,0,1-3-2.77V86.77h-2.54V61H182v3.72a7.71,7.71,0,0,1,3-2.86,8.83,8.83,0,0,1,4.24-1A9.66,9.66,0,0,1,194.08,62Zm-1.4,14.79a6.44,6.44,0,0,0,2.53-2.59,7.91,7.91,0,0,0,.91-3.83,7.79,7.79,0,0,0-.91-3.82,6.66,6.66,0,0,0-2.53-2.6,7.39,7.39,0,0,0-7.18,0,6.65,6.65,0,0,0-2.5,2.6,7.79,7.79,0,0,0-.92,3.82,7.92,7.92,0,0,0,.92,3.83,6.43,6.43,0,0,0,2.5,2.59,7.46,7.46,0,0,0,7.18,0Z"/><path class="cls-1" d="M203.86,53.25h2.54V79.82h-2.54Z"/><path class="cls-1" d="M225.74,62.69a7.14,7.14,0,0,1,2,5.46V79.82h-2.44V76.89a5.8,5.8,0,0,1-2.52,2.29,8.83,8.83,0,0,1-4,.82,7.75,7.75,0,0,1-5-1.5,5.16,5.16,0,0,1-.13-7.84q1.74-1.47,5.53-1.47h6V68a4.83,4.83,0,0,0-1.36-3.71,5.63,5.63,0,0,0-4-1.27,10,10,0,0,0-3.44.6,8.63,8.63,0,0,0-2.83,1.62l-1.15-1.89a10.12,10.12,0,0,1,3.44-1.88,13.2,13.2,0,0,1,4.23-.67A8,8,0,0,1,225.74,62.69ZM222.87,77a5.81,5.81,0,0,0,2.29-2.84V71.09h-5.9q-4.84,0-4.84,3.36a3.09,3.09,0,0,0,1.25,2.6,5.74,5.74,0,0,0,3.51,1A6.65,6.65,0,0,0,222.87,77Z"/><path class="cls-1" d="M244.54,78.68a4.75,4.75,0,0,1-1.77,1,7.09,7.09,0,0,1-2.21.34,5,5,0,0,1-5.51-5.48V63.14h-3.37V61h3.37V56.87h2.54V61h5.73v2.15h-5.73V74.38a3.56,3.56,0,0,0,.84,2.56,3.18,3.18,0,0,0,2.42.88,4.61,4.61,0,0,0,1.52-.25,3.76,3.76,0,0,0,1.27-.72Z"/><path class="cls-1" d="M264.88,71.19H249.12a6.78,6.78,0,0,0,2.26,4.75,7.52,7.52,0,0,0,5.16,1.81,8.11,8.11,0,0,0,3.22-.63,7.09,7.09,0,0,0,2.54-1.84l1.43,1.64a8,8,0,0,1-3.13,2.3,10.68,10.68,0,0,1-4.14.78,10.46,10.46,0,0,1-5.13-1.23,9,9,0,0,1-3.5-3.42,9.83,9.83,0,0,1-1.25-4.94,10.13,10.13,0,0,1,1.2-5,8.75,8.75,0,0,1,3.29-3.4,9.68,9.68,0,0,1,9.41,0,8.56,8.56,0,0,1,3.25,3.39,10.14,10.14,0,0,1,1.19,5Zm-13.66-6.42a6.8,6.8,0,0,0-2.1,4.52h13.36a6.79,6.79,0,0,0-2.09-4.52A6.46,6.46,0,0,0,255.78,63,6.39,6.39,0,0,0,251.22,64.77Z"/><path class="cls-2" d="M70.66,81.8C53,85.64,29.38,85.12,14,81.8,8.19,80.54,4.64,76.75,3.19,71c-4.89-19.38-3.56-39.64,0-56.65C4.41,8.49,8.28,5.1,14,3.49c17.91-5,41.82-4.3,56.64,0,5.72,1.67,9.51,5,10.83,10.83a124.68,124.68,0,0,1,0,56.65C80.16,76.78,76.48,80.54,70.66,81.8Z"/><polygon class="cls-3" points="38.4 38.78 42.03 32.23 45.76 38.78 51.8 42.36 46.2 45.51 42.03 52.49 38.4 45.51 31.93 42.36 38.4 38.78"/><line class="cls-3" x1="24.05" y1="24.71" x2="33.22" y2="33.79"/><line class="cls-3" x1="50.85" y1="33.79" x2="59.82" y2="24.71"/><line class="cls-3" x1="51.16" y1="51.41" x2="60.02" y2="60.49"/><line class="cls-3" x1="33.17" y1="51.2" x2="24.1" y2="60.28"/></g></g></svg>