<svg xmlns="http://www.w3.org/2000/svg" width="38.131" height="20.104" viewBox="0 0 38.131 20.104">
  <path id="HorizontaleLinie" d="M1.209,20.1a1.208,1.208,0,1,1,0-2.416H36.923A1.2,1.2,0,0,1,38.131,18.9,1.228,1.228,0,0,1,36.923,20.1Zm26.968-7.2L26,8.553H24.309V12.9H20.975V0h6.476a4.162,4.162,0,0,1,4.494,4.3,3.917,3.917,0,0,1-2.562,3.866l2.61,4.736ZM24.357,5.7h2.61a1.451,1.451,0,0,0,1.6-1.4,1.418,1.418,0,0,0-1.6-1.353h-2.61Zm-9.037,7.2V7.731H9.955V12.9H6.621V0H9.955V4.833h5.366V0h3.335V12.9Z" transform="translate(0 0)" fill="currentColor"/>
</svg>
